<svg width="22" height="19" viewBox="0 0 22 19" fill="none" xmlns="http://www.w3.org/2000/svg">
    <path d="M20.2991 9.78586C22.567 7.54338 22.567 3.90213 20.2991 1.68186C18.0311 -0.560619 14.3486 -0.560619 12.0806 1.68186L10.9804 2.792L9.88007 1.70406C7.61215 -0.560619 3.92957 -0.560619 1.6841 1.68186C0.583822 2.76979 0 4.21297 0 5.74496C0 7.27695 0.606277 8.72013 1.6841 9.80806L10.9804 19L20.2991 9.78586ZM10.9804 7.49999C10.9804 6.34545 10.9804 7.29123 10.9804 6.42014C10.9804 6.87717 10.9804 5.37202 10.9804 4.83465C10.9804 5.48507 10.9804 5.6272 10.9804 4.83465V6.99436C10.9804 7.48655 10.9946 5.54912 10.9804 7.49999C10.9751 8.40826 10.9804 6.89676 10.9804 8.0513C10.9566 9.0065 10.9517 9.20149 10.9804 8.0513C10.9655 8.64666 10.9804 8.63233 10.9804 7.49999Z"
          fill="black"/>
    <path d="M20.2991 9.78586C22.567 7.54338 22.567 3.90213 20.2991 1.68186C18.0311 -0.560619 14.3486 -0.560619 12.0806 1.68186L10.9804 2.792L9.88007 1.70406C7.61215 -0.560619 3.92957 -0.560619 1.6841 1.68186C0.583822 2.76979 0 4.21297 0 5.74496C0 7.27695 0.606277 8.72013 1.6841 9.80806L10.9804 19L20.2991 9.78586ZM10.9804 7.49999C10.9804 6.34545 10.9804 7.29123 10.9804 6.42014C10.9804 6.87717 10.9804 5.37202 10.9804 4.83465C10.9804 5.48507 10.9804 5.6272 10.9804 4.83465V6.99436C10.9804 7.48655 10.9946 5.54912 10.9804 7.49999C10.9751 8.40826 10.9804 6.89676 10.9804 8.0513C10.9566 9.0065 10.9517 9.20149 10.9804 8.0513C10.9655 8.64666 10.9804 8.63233 10.9804 7.49999Z"
          fill="#ffffff"/>
    <path d="M20.299 9.78587C22.5669 7.54339 22.5669 3.90214 20.299 1.68187C18.0311 -0.560611 14.3485 -0.560611 12.0806 1.68187L10.9803 2.792L9.88003 1.70407C7.6121 -0.560611 3.92953 -0.560611 1.68406 1.68187C0.583779 2.7698 -4.3869e-05 4.21298 -4.3869e-05 5.74497C-4.3869e-05 7.27696 0.606233 8.72014 1.68406 9.80807L10.9803 19L20.299 9.78587ZM1.43706 5.74497C1.43706 4.59043 1.88615 3.52469 2.71698 2.7254C3.57025 1.88169 4.67054 1.45984 5.77082 1.45984C6.8711 1.45984 7.97138 1.88169 8.82466 2.7254L10.9803 4.83466L13.136 2.70319C14.8201 1.03799 17.582 1.03799 19.2436 2.70319C20.052 3.50249 20.5236 4.56822 20.5236 5.72277C20.5236 6.87731 20.0745 7.94304 19.2436 8.74234L10.9803 16.9352L2.99996 9.00001C2.19159 8.17851 1.43706 6.87731 1.43706 5.74497Z"
          fill="black"/>
    <path d="M20.299 9.78587C22.5669 7.54339 22.5669 3.90214 20.299 1.68187C18.0311 -0.560611 14.3485 -0.560611 12.0806 1.68187L10.9803 2.792L9.88003 1.70407C7.6121 -0.560611 3.92953 -0.560611 1.68406 1.68187C0.583779 2.7698 -4.3869e-05 4.21298 -4.3869e-05 5.74497C-4.3869e-05 7.27696 0.606233 8.72014 1.68406 9.80807L10.9803 19L20.299 9.78587ZM1.43706 5.74497C1.43706 4.59043 1.88615 3.52469 2.71698 2.7254C3.57025 1.88169 4.67054 1.45984 5.77082 1.45984C6.8711 1.45984 7.97138 1.88169 8.82466 2.7254L10.9803 4.83466L13.136 2.70319C14.8201 1.03799 17.582 1.03799 19.2436 2.70319C20.052 3.50249 20.5236 4.56822 20.5236 5.72277C20.5236 6.87731 20.0745 7.94304 19.2436 8.74234L10.9803 16.9352L2.99996 9.00001C2.19159 8.17851 1.43706 6.87731 1.43706 5.74497Z"
          fill="black"/>
</svg>
